<svg id="Layer_1" data-name="Layer 1" xmlns="http://www.w3.org/2000/svg" viewBox="0 0 229.14 72.43"><defs><style>.cls-1{fill:#ec008c}</style></defs><path class="cls-1" d="M54.38 34.81l3.09-11.62h17.25L72 34.81H54.38zm70.11-32.69a36.36 36.36 0 00-6.91-1.63 41.3 41.3 0 00-12.9 0c-6 .78-12.56 2.58-18.34 7.77A31.2 31.2 0 0076.17 31c0 4.55 1.92 8.45 5.8 11.81 2.93 2.53 5.31 3.2 9.1 4 5.08 1.07 9.58.85 15.62 0a48 48 0 004.9-.91c1.57-.36 4-1.08 4-1.08l5.26-21.62H106.5l-2.72 12.35a8 8 0 01-3.45.55 7.42 7.42 0 01-5.45-2c-2.18-2-1.95-7.87-.18-12.35a14 14 0 015.68-7.26c3.8-2.63 7-2.66 11.57-2.55a21.55 21.55 0 019.63 2.18zm19.37 23.15H153l-.73-14.55zm-27.08 21.08L143.32.54h22l3.63 45.81h-17.46v-9.81H138l-4.72 9.81zm99.79-44.41s-1.88-.48-3.09-.73a43.43 43.43 0 00-5.08-.72 48.62 48.62 0 00-11.75 0C192.8 1 186.59 2 182.24 6.12c-4.16 4-6.17 8.35-6.17 13.44a7.71 7.71 0 005.81 7.44c1.39.34 6 1.76 9.76 2.84 2.57.74 3.14 1.29 3.13 3s-2 2.51-3.87 3a26.63 26.63 0 01-8.3.07 28.37 28.37 0 01-9.8-2.72l-2.91 11.61a43.32 43.32 0 008.17 2c6.23 1 10.51 1.21 16.17 0A24.11 24.11 0 00206 41.25a16.16 16.16 0 006-10.79c.27-3.24.31-5.57-1.64-8.18-2.26-3-5.33-2.94-8.9-3.81-2.43-.6-3.89-.52-6.37-1.38-1-.36-1.62-1.06-1.62-2.62 0-1.78 1.74-2.48 3.6-2.81a22.75 22.75 0 016.39-.09 26.81 26.81 0 016.72 1.09 22.29 22.29 0 013.45 1.27zM27.16 25.27h9.09l-.73-14.55zM.07 46.35L26.61.54h22l3.63 45.81H34.79v-9.81H21.34l-4.73 9.81z"/><path d="M223.06 6.29h.88l1.48 2.44h1.06l-1.6-2.51a1.46 1.46 0 001.49-1.56c0-1.16-.7-1.65-2.08-1.65h-2.17v5.72h.94zm0-.8V3.81h1.13c.57 0 1.24.09 1.24.78s-.62.9-1.32.9zm6.08.29a5.07 5.07 0 10-10.14 0 5.07 5.07 0 1010.14 0m-1.11 0a4 4 0 11-7.93 0 4 4 0 117.93 0" fill="#e32084"/><path class="cls-1" d="M144.5 57.94a5.49 5.49 0 00.25-.67.42.42 0 000-.39.6.6 0 00-.4-.17 5.61 5.61 0 00-.8 0h-.86a3.79 3.79 0 00-.53.08.64.64 0 00-.3.18.76.76 0 00-.16.28l-5.07 11.9-.63-11.76a1.78 1.78 0 00-.06-.38.37.37 0 00-.22-.22 1.59 1.59 0 00-.49-.1h-1.74a2.08 2.08 0 00-.53.1.76.76 0 00-.32.22 1.22 1.22 0 00-.21.36l-5.21 11.76-.31-11.77a1.16 1.16 0 000-.35.36.36 0 00-.2-.21 1.6 1.6 0 00-.5-.1h-1.74a1 1 0 00-.5.14.44.44 0 00-.19.34 2.81 2.81 0 000 .61l.83 13.57a1.48 1.48 0 00.09.49.48.48 0 00.31.26 2.14 2.14 0 00.66.11h2.15a1.86 1.86 0 00.62-.11.81.81 0 00.37-.25 2.16 2.16 0 00.25-.46l4.29-9.81.56 9.89a.91.91 0 00.1.41.49.49 0 00.3.23 2.21 2.21 0 00.62.1h2a2.26 2.26 0 00.66-.11.88.88 0 00.42-.25 1.81 1.81 0 00.28-.46zm12.42-1.2h-7.68a1.26 1.26 0 00-.72.23 1.21 1.21 0 00-.43.76l-2.69 13.45a1.18 1.18 0 000 .45.68.68 0 00.14.31.53.53 0 00.26.18.93.93 0 00.34 0h7.76a.36.36 0 00.27-.11 1.11 1.11 0 00.21-.32 2.6 2.6 0 00.15-.42c0-.15.07-.3.1-.45a2.08 2.08 0 000-.4v-.26a.9.9 0 00-.07-.37.24.24 0 00-.22-.12h-5.58l.88-4.36h4.66a.37.37 0 00.27-.12.87.87 0 00.2-.31 3.19 3.19 0 00.16-.41c0-.15.07-.3.09-.45s0-.28.05-.4a1.34 1.34 0 000-.25.6.6 0 00-.07-.33.26.26 0 00-.24-.12h-4.67l.76-3.77h5.51a.39.39 0 00.27-.13 1.33 1.33 0 00.21-.33 2.52 2.52 0 00.15-.44c0-.16.07-.31.1-.46s0-.28.05-.4 0-.2 0-.25c0-.3-.1-.45-.31-.45m21 .9a2.71 2.71 0 00-.77-.52 5.8 5.8 0 00-1.3-.46 7.36 7.36 0 00-1.58-.17 7.68 7.68 0 00-4.9 1.67 8.6 8.6 0 00-1.66 1.8 11.36 11.36 0 00-1.17 2.17 12.66 12.66 0 00-.68 2.35 12.37 12.37 0 00-.23 2.3 6.9 6.9 0 00.4 2.48 4.59 4.59 0 001.19 1.79 4.49 4.49 0 001.77 1 7.42 7.42 0 002.34.35 8.58 8.58 0 001.48-.13A10.28 10.28 0 00174 72a5.21 5.21 0 00.93-.39 2.06 2.06 0 00.51-.34 1 1 0 00.21-.31 1.88 1.88 0 00.14-.38c0-.14.08-.29.11-.45s.06-.32.08-.45a3.26 3.26 0 00.06-.38 1.61 1.61 0 000-.25.7.7 0 00-.06-.32.21.21 0 00-.21-.11.93.93 0 00-.5.18c-.19.12-.43.25-.71.39a5.56 5.56 0 01-1 .4 5.13 5.13 0 01-1.45.18 3.71 3.71 0 01-1.29-.21 2.55 2.55 0 01-1-.63 2.84 2.84 0 01-.6-1.05 4.65 4.65 0 01-.21-1.47 9 9 0 01.14-1.49 9.66 9.66 0 01.42-1.62 8.41 8.41 0 01.71-1.56 6.1 6.1 0 011-1.33 4.42 4.42 0 011.3-.93 3.56 3.56 0 011.61-.36 3.88 3.88 0 011.33.2 4.37 4.37 0 01.89.42 5.31 5.31 0 01.56.43.59.59 0 00.37.2c.14 0 .27-.12.39-.34a3.65 3.65 0 00.28-.91 4.33 4.33 0 00.11-.89.82.82 0 00-.22-.59m11.85-.32a.91.91 0 00-.1-.35.43.43 0 00-.3-.2 2.42 2.42 0 00-.63-.08h-2.12a2.29 2.29 0 00-.6.08.74.74 0 00-.34.19 1.57 1.57 0 00-.24.33L178 71a3.81 3.81 0 00-.3.67.4.4 0 000 .39.56.56 0 00.41.17 8.44 8.44 0 00.85 0h.85a2.21 2.21 0 00.54-.08.7.7 0 00.31-.17.92.92 0 00.19-.28l1.6-3h5.8l.42 3.1a.58.58 0 00.07.26.37.37 0 00.22.14 1.82 1.82 0 00.44.07h1.74a1 1 0 00.53-.16.47.47 0 00.17-.37 5.07 5.07 0 00-.06-.68zM188 66.25h-4.34l3.44-6.56zm22.61-9.09a.3.3 0 000-.21.34.34 0 00-.19-.15 2.1 2.1 0 00-.41-.08 6.81 6.81 0 00-.7 0 6.6 6.6 0 00-.69 0 3.4 3.4 0 00-.45.08.59.59 0 00-.25.15.43.43 0 00-.11.21l-1.47 7.27c-.11.58-.22 1.17-.32 1.77s-.21 1.2-.3 1.78c-.14-.44-.26-.88-.39-1.32s-.26-.87-.41-1.32l-2.3-7a5.11 5.11 0 00-.28-.77 2 2 0 00-.35-.51 1.15 1.15 0 00-.48-.28 2.17 2.17 0 00-.67-.09h-1.63a1.39 1.39 0 00-.86.28 1.28 1.28 0 00-.49.84L195 71.75a.26.26 0 00.19.36 1.53 1.53 0 00.41.1 6.12 6.12 0 00.69 0 6.47 6.47 0 00.7 0 2.44 2.44 0 00.46-.1.6.6 0 00.26-.15.5.5 0 00.12-.21l1.57-7.89c.13-.61.24-1.22.35-1.83s.19-1.23.27-1.86c.13.54.27 1.07.42 1.62s.31 1.07.48 1.61l2.28 6.89a9.13 9.13 0 00.32.94 2.3 2.3 0 00.35.59 1 1 0 00.47.29 2.36 2.36 0 00.71.09h1.34a1.37 1.37 0 00.45-.07 1.07 1.07 0 00.41-.21 1.35 1.35 0 00.32-.35 1.61 1.61 0 00.19-.49z"/><path d="M11.58 56.85a.22.22 0 00-.21-.11H.63a.28.28 0 00-.21.08.83.83 0 00-.16.2q-.06.12-.12.27a2.21 2.21 0 00-.07.3v.28a1.91 1.91 0 000 .2.61.61 0 00.06.3.25.25 0 00.23.11h4.25L1.93 71.86a.31.31 0 000 .17.25.25 0 00.15.11 1.26 1.26 0 00.3.08 3.19 3.19 0 00.49 0 3.63 3.63 0 00.5 0 2 2 0 00.33-.08.4.4 0 00.2-.14.34.34 0 00.1-.14l2.67-13.38H11a.37.37 0 00.22-.08.52.52 0 00.17-.19 1.18 1.18 0 00.12-.28 2 2 0 00.08-.31 2.51 2.51 0 000-.27v-.19a.68.68 0 00-.06-.31m14.1 2.74a4.47 4.47 0 00-1-1.69 4.36 4.36 0 00-1.7-1 7.39 7.39 0 00-2.37-.35 8.23 8.23 0 00-3 .5 7.4 7.4 0 00-2.25 1.33 8.31 8.31 0 00-1.62 1.93 11.66 11.66 0 00-1.07 2.26 12.54 12.54 0 00-.59 2.36 14.57 14.57 0 00-.18 2.2 6.94 6.94 0 00.34 2.29A4.16 4.16 0 0015 72.06a7.47 7.47 0 002.38.34 8 8 0 003-.52 7.7 7.7 0 002.27-1.38 8.18 8.18 0 001.6-2 11.88 11.88 0 001-2.27 13.55 13.55 0 00.57-2.3 14.35 14.35 0 00.16-2 7.23 7.23 0 00-.34-2.33m-2 4a11.94 11.94 0 01-.38 1.85 12.68 12.68 0 01-.73 1.87A6.61 6.61 0 0121.47 69a5.54 5.54 0 01-1.61 1.18 5.13 5.13 0 01-2.17.44 4.8 4.8 0 01-1.69-.26 2.82 2.82 0 01-1.12-.76 3 3 0 01-.61-1.18 6 6 0 01-.19-1.53 13.75 13.75 0 01.5-3.4 11.45 11.45 0 01.72-1.89 6.44 6.44 0 011.13-1.68 5.69 5.69 0 011.62-1.2 5 5 0 012.18-.45 4.39 4.39 0 011.67.28 2.66 2.66 0 011.11.78 3.1 3.1 0 01.61 1.2 6 6 0 01.19 1.53 11.92 11.92 0 01-.12 1.57m19.22-5.51a.79.79 0 00-.19-.25 5.24 5.24 0 00-.54-.38 4.63 4.63 0 00-1-.46 9.13 9.13 0 00-1.29-.36 7.82 7.82 0 00-1.57-.15 9.1 9.1 0 00-2.71.4A9.25 9.25 0 0033.37 58a8.68 8.68 0 00-1.85 1.62 9.63 9.63 0 00-1.35 2.06A10.77 10.77 0 0029 66.52a6.82 6.82 0 00.45 2.48 5 5 0 001.22 1.85 5.24 5.24 0 002 1.16 8.35 8.35 0 002.73.4 8.83 8.83 0 001.73-.16 12.12 12.12 0 001.5-.38 9 9 0 001.09-.42 2.81 2.81 0 00.55-.32 1.46 1.46 0 00.17-.24 1.23 1.23 0 00.12-.37l1.2-5.94a.78.78 0 00-.07-.6.52.52 0 00-.48-.23h-4.93a.33.33 0 00-.19.06.69.69 0 00-.16.18 2.1 2.1 0 00-.13.26 1.57 1.57 0 00-.08.29 2.74 2.74 0 000 .28v.22a.5.5 0 00.08.29.26.26 0 00.22.1h3.57l-.9 4.47a6.15 6.15 0 01-1.49.54 7.81 7.81 0 01-1.55.17 5.42 5.42 0 01-1.81-.28 3.87 3.87 0 01-1.39-.83 3.66 3.66 0 01-.87-1.35 5.11 5.11 0 01-.31-1.86 8.89 8.89 0 01.87-3.85 7.94 7.94 0 011-1.64 7.17 7.17 0 011.38-1.32 7 7 0 011.7-.87 6.15 6.15 0 012-.31 5.89 5.89 0 011.74.22 7.12 7.12 0 011.24.49q.49.27.81.48a1 1 0 00.48.22.26.26 0 00.16-.07.7.7 0 00.13-.18 1.28 1.28 0 00.1-.26 1.82 1.82 0 00.08-.29c0-.09 0-.18.05-.26a1.83 1.83 0 000-.21.85.85 0 000-.3m13.51-1.38h-7.4a1.05 1.05 0 00-.56.18 1 1 0 00-.37.65l-2.75 13.75a.9.9 0 000 .39.71.71 0 00.13.26.41.41 0 00.21.14.78.78 0 00.26 0h7.42a.36.36 0 00.22-.07.52.52 0 00.17-.19 1.39 1.39 0 00.12-.28c0-.1.05-.19.07-.29s0-.19 0-.28a1.56 1.56 0 000-.2.51.51 0 00-.07-.3.27.27 0 00-.2-.09h-6.13L48.77 65h5.17a.37.37 0 00.22-.08 1 1 0 00.16-.19 1.56 1.56 0 00.11-.26 1.37 1.37 0 00.07-.29v-.28a.69.69 0 000-.18.48.48 0 00-.07-.29.26.26 0 00-.21-.09h-5.13l1-4.85h6a.36.36 0 00.22-.07.51.51 0 00.17-.21 1 1 0 00.12-.28c0-.1 0-.2.07-.29s0-.19 0-.27v-.19q0-.39-.27-.39m14.6.06a.22.22 0 00-.21-.11H60a.28.28 0 00-.21.08.83.83 0 00-.16.2 1.11 1.11 0 00-.12.27 2.17 2.17 0 00-.08.3v.28a.79.79 0 000 .2.61.61 0 00.06.3.24.24 0 00.23.11H64l-2.67 13.38a.31.31 0 000 .17.22.22 0 00.15.11 1.26 1.26 0 00.3.08 3 3 0 00.48 0 3.43 3.43 0 00.5 0 1.59 1.59 0 00.33-.08.32.32 0 00.19-.11.28.28 0 00.09-.17l2.69-13.38h4.34a.37.37 0 00.22-.08.63.63 0 00.17-.19 1.18 1.18 0 00.12-.28c0-.11.06-.21.08-.31a2.51 2.51 0 000-.27v-.19a.68.68 0 00-.06-.31m14.7.15a.22.22 0 000-.16.23.23 0 00-.14-.11 1.61 1.61 0 00-.31-.07 3.18 3.18 0 00-.47 0 3.49 3.49 0 00-.51 0 2.09 2.09 0 00-.33.07.48.48 0 00-.2.11.26.26 0 00-.07.16l-1.25 6.19h-7L76.57 57a.29.29 0 000-.16c0-.05-.06-.08-.14-.11a1.33 1.33 0 00-.3-.07 3.23 3.23 0 00-.48 0 3.43 3.43 0 00-.5 0 2.09 2.09 0 00-.33.07.55.55 0 00-.2.11.23.23 0 00-.08.16l-3 14.84a.2.2 0 000 .15.23.23 0 00.14.11 1.41 1.41 0 00.3.08 3.43 3.43 0 00.5 0 3.38 3.38 0 00.49 0 1.9 1.9 0 00.34-.08.36.36 0 00.19-.11.37.37 0 00.08-.15L75 65h7l-1.36 6.86a.14.14 0 000 .15.2.2 0 00.15.11 1.26 1.26 0 00.3.08 3.23 3.23 0 00.48 0 3.43 3.43 0 00.5 0 1.77 1.77 0 00.33-.08.4.4 0 00.19-.11.6.6 0 00.09-.15zm13.45-.3h-7.31a1.05 1.05 0 00-.56.18 1 1 0 00-.37.65l-2.76 13.81a.88.88 0 000 .39.58.58 0 00.13.26.38.38 0 00.21.14.78.78 0 00.26 0h7.42a.36.36 0 00.22-.07.79.79 0 00.17-.19 1 1 0 00.11-.28 1.53 1.53 0 00.07-.29v-.28a1.56 1.56 0 000-.2.51.51 0 00-.08-.3.25.25 0 00-.2-.09h-6.1L91.41 65h5.18a.32.32 0 00.21-.08.77.77 0 00.17-.19 1.56 1.56 0 00.11-.26 2.46 2.46 0 00.07-.29v-.46a.48.48 0 00-.07-.29.27.27 0 00-.22-.09h-5.12l1-4.85h6a.36.36 0 00.22-.07.74.74 0 00.17-.21.78.78 0 00.11-.28c0-.1.05-.2.08-.29s0-.19 0-.27v-.19c0-.26-.1-.39-.28-.39m13.41 1.85a2.64 2.64 0 00-.84-1 4.35 4.35 0 00-1.39-.63 7.92 7.92 0 00-1.93-.21H105a1.16 1.16 0 00-.63.18 1 1 0 00-.38.65l-2.89 14.25a.21.21 0 000 .16.31.31 0 00.15.12 1.42 1.42 0 00.3.06 3.28 3.28 0 00.47 0 3.68 3.68 0 00.51 0 2 2 0 00.33-.08.32.32 0 00.19-.11.37.37 0 00.08-.15l1.33-6.59h1.37a2.91 2.91 0 011.17.21 2 2 0 01.8.59 2.66 2.66 0 01.48.88 6.26 6.26 0 01.27 1.15l.61 3.62a1 1 0 00.06.25.36.36 0 00.15.15.67.67 0 00.29.08 3.34 3.34 0 00.5 0 4.67 4.67 0 00.57 0 1.43 1.43 0 00.36-.07.34.34 0 00.19-.13.28.28 0 00.06-.18 2.36 2.36 0 000-.35c0-.13 0-.27-.06-.43l-.64-3.41a6.59 6.59 0 00-.6-1.92 2 2 0 00-1-1 6.3 6.3 0 001.65-.78 5 5 0 001.18-1.11 4.31 4.31 0 00.71-1.36 5.3 5.3 0 00.23-1.56 3.21 3.21 0 00-.28-1.38m-2.16 2.93a3 3 0 01-.69 1.07 3.52 3.52 0 01-1.22.76 5.1 5.1 0 01-1.81.28h-1.85l1-5.2h2.2a5 5 0 011.17.13 2.06 2.06 0 01.8.39 1.53 1.53 0 01.45.59 2 2 0 01.14.75 3.47 3.47 0 01-.22 1.23" fill="#808285"/></svg>